<svg width="40" height="40" viewBox="0 0 40 40" fill="none" xmlns="http://www.w3.org/2000/svg">
<g filter="url(#filter0_b_1_14211)">
<rect width="40" height="40" rx="20" fill="#F2BC1B"/>
<path d="M16.796 25.5L16.268 24.188L19.628 20.428C19.82 20.236 20.0173 20.0173 20.22 19.772C20.4227 19.516 20.6147 19.2547 20.796 18.988C20.988 18.7107 21.1427 18.444 21.26 18.188C21.3773 17.9213 21.436 17.676 21.436 17.452C21.436 17.164 21.372 16.9133 21.244 16.7C21.1267 16.4867 20.956 16.3213 20.732 16.204C20.508 16.0867 20.2307 16.028 19.9 16.028C19.612 16.028 19.3293 16.1133 19.052 16.284C18.7853 16.444 18.5347 16.6787 18.3 16.988C18.076 17.2867 17.8893 17.644 17.74 18.06L16.172 17.132C16.364 16.5133 16.652 15.98 17.036 15.532C17.4307 15.0733 17.8893 14.7213 18.412 14.476C18.9453 14.2307 19.5213 14.108 20.14 14.108C20.78 14.108 21.3507 14.2413 21.852 14.508C22.3533 14.7747 22.748 15.1427 23.036 15.612C23.3347 16.0813 23.484 16.6307 23.484 17.26C23.484 17.4947 23.4573 17.74 23.404 17.996C23.3507 18.2413 23.2653 18.5027 23.148 18.78C23.0413 19.0467 22.8973 19.3293 22.716 19.628C22.5347 19.916 22.316 20.22 22.06 20.54C21.8147 20.86 21.532 21.196 21.212 21.548L18.668 24.316L18.348 23.58H23.884V25.5H16.796Z" fill="#05422C"/>
</g>
<defs>
<filter id="filter0_b_1_14211" x="-8" y="-8" width="56" height="56" filterUnits="userSpaceOnUse" color-interpolation-filters="sRGB">
<feFlood flood-opacity="0" result="BackgroundImageFix"/>
<feGaussianBlur in="BackgroundImageFix" stdDeviation="4"/>
<feComposite in2="SourceAlpha" operator="in" result="effect1_backgroundBlur_1_14211"/>
<feBlend mode="normal" in="SourceGraphic" in2="effect1_backgroundBlur_1_14211" result="shape"/>
</filter>
</defs>
</svg>
