<svg width="40" height="40" viewBox="0 0 40 40" fill="none" xmlns="http://www.w3.org/2000/svg">
<g filter="url(#filter0_b_1_14219)">
<rect width="40" height="40" rx="20" fill="#F2BC1B"/>
<path d="M19.724 25.66C18.892 25.66 18.1667 25.4787 17.548 25.116C16.9293 24.7427 16.3587 24.1133 15.836 23.228L17.404 22.236C17.6493 22.6307 17.9 22.9507 18.156 23.196C18.4227 23.4307 18.6893 23.6067 18.956 23.724C19.2333 23.8307 19.5267 23.884 19.836 23.884C20.188 23.884 20.508 23.7987 20.796 23.628C21.0947 23.4573 21.3293 23.2227 21.5 22.924C21.6813 22.6253 21.772 22.284 21.772 21.9C21.772 21.516 21.6973 21.1907 21.548 20.924C21.4093 20.6573 21.2013 20.4547 20.924 20.316C20.6573 20.1667 20.332 20.092 19.948 20.092C19.7773 20.092 19.596 20.1133 19.404 20.156C19.212 20.188 19.0093 20.2413 18.796 20.316C18.5827 20.38 18.348 20.46 18.092 20.556L17.58 19.196L20.764 15.676L21.244 16.14L16.524 16.108V14.268H23.1L23.484 15.036L19.804 19.052L19.324 18.524C19.4093 18.4813 19.548 18.444 19.74 18.412C19.9427 18.3693 20.1187 18.348 20.268 18.348C20.7373 18.348 21.1853 18.4387 21.612 18.62C22.0387 18.7907 22.4067 19.036 22.716 19.356C23.036 19.676 23.2867 20.0493 23.468 20.476C23.6493 20.892 23.74 21.3453 23.74 21.836C23.74 22.572 23.5587 23.228 23.196 23.804C22.844 24.3693 22.364 24.8227 21.756 25.164C21.148 25.4947 20.4707 25.66 19.724 25.66Z" fill="#05422C"/>
</g>
<defs>
<filter id="filter0_b_1_14219" x="-8" y="-8" width="56" height="56" filterUnits="userSpaceOnUse" color-interpolation-filters="sRGB">
<feFlood flood-opacity="0" result="BackgroundImageFix"/>
<feGaussianBlur in="BackgroundImageFix" stdDeviation="4"/>
<feComposite in2="SourceAlpha" operator="in" result="effect1_backgroundBlur_1_14219"/>
<feBlend mode="normal" in="SourceGraphic" in2="effect1_backgroundBlur_1_14219" result="shape"/>
</filter>
</defs>
</svg>
